<svg width="203" height="24" viewBox="0 0 203 24" fill="none" xmlns="http://www.w3.org/2000/svg">
<rect width="53" height="24" rx="8" fill="#EBEBFF"/>
<path d="M16.524 9.28C17.292 9.28 17.908 9.528 18.372 10.024C18.836 10.52 19.068 11.228 19.068 12.148V16H17.7V12.292C17.7 11.7 17.548 11.244 17.244 10.924C16.94 10.596 16.524 10.432 15.996 10.432C15.452 10.432 15.016 10.608 14.688 10.96C14.36 11.304 14.196 11.812 14.196 12.484V16H12.828V7.12H14.196V10.84C14.372 10.344 14.668 9.96 15.084 9.688C15.5 9.416 15.98 9.28 16.524 9.28ZM24.3518 14.812V16H23.5118C22.8078 16 22.2718 15.832 21.9038 15.496C21.5438 15.152 21.3638 14.584 21.3638 13.792V10.552H20.4158V9.388H21.3638V7.744H22.7438V9.388H24.3398V10.552H22.7438V13.816C22.7438 14.192 22.8118 14.452 22.9478 14.596C23.0918 14.74 23.3398 14.812 23.6918 14.812H24.3518ZM34.2613 9.28C35.0453 9.28 35.6693 9.528 36.1333 10.024C36.6053 10.52 36.8413 11.228 36.8413 12.148V16H35.4733V12.292C35.4733 11.716 35.3293 11.272 35.0413 10.96C34.7533 10.64 34.3573 10.48 33.8533 10.48C33.3173 10.48 32.8893 10.652 32.5693 10.996C32.2573 11.332 32.1013 11.828 32.1013 12.484V16H30.7333V12.292C30.7333 11.716 30.5893 11.272 30.3013 10.96C30.0133 10.64 29.6173 10.48 29.1133 10.48C28.5773 10.48 28.1493 10.652 27.8293 10.996C27.5173 11.332 27.3613 11.828 27.3613 12.484V16H25.9933V9.388H27.3613V10.768C27.5293 10.288 27.8093 9.92 28.2013 9.664C28.5933 9.408 29.0533 9.28 29.5813 9.28C30.1333 9.28 30.6093 9.416 31.0093 9.688C31.4173 9.96 31.7133 10.352 31.8973 10.864C32.0893 10.368 32.3973 9.98 32.8213 9.7C33.2453 9.42 33.7253 9.28 34.2613 9.28ZM40.1666 7.12V16H38.7986V7.12H40.1666Z" fill="#6070FF"/>
<rect x="61" width="45" height="24" rx="8" fill="#EBEBFF"/>
<path d="M76.768 9.304C77.624 9.304 78.332 9.532 78.892 9.988C79.452 10.436 79.8 11.048 79.936 11.824H78.484C78.404 11.408 78.208 11.084 77.896 10.852C77.592 10.612 77.208 10.492 76.744 10.492C76.216 10.492 75.776 10.68 75.424 11.056C75.072 11.424 74.896 11.968 74.896 12.688C74.896 13.408 75.072 13.956 75.424 14.332C75.776 14.708 76.216 14.896 76.744 14.896C77.208 14.896 77.592 14.776 77.896 14.536C78.208 14.296 78.404 13.968 78.484 13.552H79.936C79.8 14.328 79.452 14.944 78.892 15.4C78.332 15.856 77.624 16.084 76.768 16.084C76.128 16.084 75.56 15.948 75.064 15.676C74.576 15.404 74.192 15.012 73.912 14.5C73.632 13.988 73.492 13.384 73.492 12.688C73.492 12 73.632 11.4 73.912 10.888C74.192 10.376 74.576 9.984 75.064 9.712C75.56 9.44 76.128 9.304 76.768 9.304ZM83.7897 9.304C84.5657 9.304 85.1857 9.504 85.6497 9.904C86.1217 10.296 86.4097 10.824 86.5137 11.488H85.2177C85.1617 11.128 85.0057 10.84 84.7497 10.624C84.5017 10.4 84.1697 10.288 83.7537 10.288C83.4097 10.288 83.1417 10.372 82.9497 10.54C82.7657 10.7 82.6737 10.92 82.6737 11.2C82.6737 11.408 82.7417 11.576 82.8777 11.704C83.0137 11.832 83.1817 11.932 83.3817 12.004C83.5897 12.076 83.8817 12.156 84.2577 12.244C84.7537 12.356 85.1537 12.472 85.4577 12.592C85.7697 12.712 86.0337 12.904 86.2497 13.168C86.4737 13.424 86.5857 13.776 86.5857 14.224C86.5857 14.776 86.3737 15.224 85.9497 15.568C85.5337 15.912 84.9697 16.084 84.2577 16.084C83.4337 16.084 82.7657 15.892 82.2537 15.508C81.7497 15.124 81.4457 14.588 81.3417 13.9H82.6737C82.7137 14.26 82.8737 14.552 83.1537 14.776C83.4337 15 83.8017 15.112 84.2577 15.112C84.5857 15.112 84.8417 15.028 85.0257 14.86C85.2177 14.684 85.3137 14.464 85.3137 14.2C85.3137 13.968 85.2417 13.784 85.0977 13.648C84.9537 13.512 84.7737 13.408 84.5577 13.336C84.3417 13.256 84.0457 13.176 83.6697 13.096C83.1897 12.984 82.7977 12.872 82.4937 12.76C82.1977 12.648 81.9417 12.468 81.7257 12.22C81.5177 11.964 81.4137 11.62 81.4137 11.188C81.4137 10.628 81.6217 10.176 82.0377 9.832C82.4617 9.48 83.0457 9.304 83.7897 9.304ZM90.4895 9.304C91.2655 9.304 91.8855 9.504 92.3495 9.904C92.8215 10.296 93.1095 10.824 93.2135 11.488H91.9175C91.8615 11.128 91.7055 10.84 91.4495 10.624C91.2015 10.4 90.8695 10.288 90.4535 10.288C90.1095 10.288 89.8415 10.372 89.6495 10.54C89.4655 10.7 89.3735 10.92 89.3735 11.2C89.3735 11.408 89.4415 11.576 89.5775 11.704C89.7135 11.832 89.8815 11.932 90.0815 12.004C90.2895 12.076 90.5815 12.156 90.9575 12.244C91.4535 12.356 91.8535 12.472 92.1575 12.592C92.4695 12.712 92.7335 12.904 92.9495 13.168C93.1735 13.424 93.2855 13.776 93.2855 14.224C93.2855 14.776 93.0735 15.224 92.6495 15.568C92.2335 15.912 91.6695 16.084 90.9575 16.084C90.1335 16.084 89.4655 15.892 88.9535 15.508C88.4495 15.124 88.1455 14.588 88.0415 13.9H89.3735C89.4135 14.26 89.5735 14.552 89.8535 14.776C90.1335 15 90.5015 15.112 90.9575 15.112C91.2855 15.112 91.5415 15.028 91.7255 14.86C91.9175 14.684 92.0135 14.464 92.0135 14.2C92.0135 13.968 91.9415 13.784 91.7975 13.648C91.6535 13.512 91.4735 13.408 91.2575 13.336C91.0415 13.256 90.7455 13.176 90.3695 13.096C89.8895 12.984 89.4975 12.872 89.1935 12.76C88.8975 12.648 88.6415 12.468 88.4255 12.22C88.2175 11.964 88.1135 11.62 88.1135 11.188C88.1135 10.628 88.3215 10.176 88.7375 9.832C89.1615 9.48 89.7455 9.304 90.4895 9.304Z" fill="#6070FF"/>
<rect x="114" width="89" height="24" rx="8" fill="#EBEBFF"/>
<path d="M127.572 8.248C127.308 8.248 127.092 8.176 126.924 8.032C126.764 7.888 126.684 7.7 126.684 7.468C126.684 7.236 126.764 7.044 126.924 6.892C127.092 6.74 127.308 6.664 127.572 6.664C127.836 6.664 128.048 6.74 128.208 6.892C128.368 7.044 128.448 7.236 128.448 7.468C128.448 7.7 128.368 7.888 128.208 8.032C128.048 8.176 127.836 8.248 127.572 8.248ZM125.652 17.944H126.12C126.384 17.944 126.576 17.884 126.696 17.764C126.824 17.652 126.888 17.456 126.888 17.176V9.388H128.268V17.188C128.268 18.492 127.612 19.144 126.3 19.144H125.652V17.944ZM132.91 9.304C133.51 9.304 134.022 9.452 134.446 9.748C134.87 10.044 135.17 10.436 135.346 10.924V9.388H136.714V16H135.346V14.464C135.17 14.952 134.87 15.344 134.446 15.64C134.022 15.936 133.51 16.084 132.91 16.084C132.334 16.084 131.818 15.948 131.362 15.676C130.914 15.404 130.562 15.012 130.306 14.5C130.05 13.988 129.922 13.384 129.922 12.688C129.922 12 130.05 11.4 130.306 10.888C130.562 10.376 130.914 9.984 131.362 9.712C131.818 9.44 132.334 9.304 132.91 9.304ZM133.33 10.504C132.722 10.504 132.234 10.7 131.866 11.092C131.506 11.476 131.326 12.008 131.326 12.688C131.326 13.368 131.506 13.904 131.866 14.296C132.234 14.68 132.722 14.872 133.33 14.872C133.714 14.872 134.058 14.784 134.362 14.608C134.666 14.424 134.906 14.168 135.082 13.84C135.258 13.512 135.346 13.128 135.346 12.688C135.346 12.256 135.258 11.876 135.082 11.548C134.906 11.212 134.666 10.956 134.362 10.78C134.058 10.596 133.714 10.504 133.33 10.504ZM141.428 14.584L143.3 9.388H144.764L142.244 16H140.588L138.068 9.388H139.532L141.428 14.584ZM148.783 9.304C149.383 9.304 149.895 9.452 150.319 9.748C150.743 10.044 151.043 10.436 151.219 10.924V9.388H152.587V16H151.219V14.464C151.043 14.952 150.743 15.344 150.319 15.64C149.895 15.936 149.383 16.084 148.783 16.084C148.207 16.084 147.691 15.948 147.235 15.676C146.787 15.404 146.435 15.012 146.179 14.5C145.923 13.988 145.795 13.384 145.795 12.688C145.795 12 145.923 11.4 146.179 10.888C146.435 10.376 146.787 9.984 147.235 9.712C147.691 9.44 148.207 9.304 148.783 9.304ZM149.203 10.504C148.595 10.504 148.107 10.7 147.739 11.092C147.379 11.476 147.199 12.008 147.199 12.688C147.199 13.368 147.379 13.904 147.739 14.296C148.107 14.68 148.595 14.872 149.203 14.872C149.587 14.872 149.931 14.784 150.235 14.608C150.539 14.424 150.779 14.168 150.955 13.84C151.131 13.512 151.219 13.128 151.219 12.688C151.219 12.256 151.131 11.876 150.955 11.548C150.779 11.212 150.539 10.956 150.235 10.78C149.931 10.596 149.587 10.504 149.203 10.504ZM160.156 13.744C160.156 14.16 160.056 14.548 159.856 14.908C159.656 15.26 159.352 15.544 158.944 15.76C158.536 15.976 158.036 16.084 157.444 16.084C156.868 16.084 156.352 15.984 155.896 15.784C155.44 15.576 155.076 15.288 154.804 14.92C154.532 14.552 154.376 14.128 154.336 13.648H155.8C155.84 14.016 155.996 14.332 156.268 14.596C156.548 14.86 156.92 14.992 157.384 14.992C157.8 14.992 158.12 14.88 158.344 14.656C158.576 14.432 158.692 14.144 158.692 13.792C158.692 13.488 158.608 13.24 158.44 13.048C158.272 12.848 158.064 12.692 157.816 12.58C157.568 12.468 157.228 12.34 156.796 12.196C156.268 12.028 155.836 11.86 155.5 11.692C155.172 11.524 154.892 11.28 154.66 10.96C154.428 10.64 154.312 10.22 154.312 9.7C154.312 9.244 154.424 8.844 154.648 8.5C154.872 8.156 155.192 7.892 155.608 7.708C156.024 7.516 156.504 7.42 157.048 7.42C157.912 7.42 158.596 7.628 159.1 8.044C159.612 8.46 159.904 9.004 159.976 9.676H158.5C158.444 9.356 158.292 9.084 158.044 8.86C157.804 8.628 157.472 8.512 157.048 8.512C156.664 8.512 156.356 8.612 156.124 8.812C155.892 9.004 155.776 9.284 155.776 9.652C155.776 9.94 155.856 10.18 156.016 10.372C156.176 10.556 156.376 10.704 156.616 10.816C156.864 10.92 157.2 11.044 157.624 11.188C158.16 11.356 158.596 11.528 158.932 11.704C159.276 11.872 159.564 12.12 159.796 12.448C160.036 12.776 160.156 13.208 160.156 13.744ZM164.826 9.304C165.682 9.304 166.39 9.532 166.95 9.988C167.51 10.436 167.858 11.048 167.994 11.824H166.542C166.462 11.408 166.266 11.084 165.954 10.852C165.65 10.612 165.266 10.492 164.802 10.492C164.274 10.492 163.834 10.68 163.482 11.056C163.13 11.424 162.954 11.968 162.954 12.688C162.954 13.408 163.13 13.956 163.482 14.332C163.834 14.708 164.274 14.896 164.802 14.896C165.266 14.896 165.65 14.776 165.954 14.536C166.266 14.296 166.462 13.968 166.542 13.552H167.994C167.858 14.328 167.51 14.944 166.95 15.4C166.39 15.856 165.682 16.084 164.826 16.084C164.186 16.084 163.618 15.948 163.122 15.676C162.634 15.404 162.25 15.012 161.97 14.5C161.69 13.988 161.55 13.384 161.55 12.688C161.55 12 161.69 11.4 161.97 10.888C162.25 10.376 162.634 9.984 163.122 9.712C163.618 9.44 164.186 9.304 164.826 9.304ZM171.044 10.684C171.267 10.252 171.587 9.912 172.003 9.664C172.42 9.408 172.9 9.28 173.444 9.28V10.768H173.035C172.436 10.768 171.952 10.916 171.584 11.212C171.224 11.5 171.044 11.98 171.044 12.652V16H169.675V9.388H171.044V10.684ZM174.636 7.468C174.636 7.236 174.716 7.044 174.876 6.892C175.036 6.74 175.248 6.664 175.512 6.664C175.776 6.664 175.988 6.74 176.148 6.892C176.316 7.044 176.4 7.236 176.4 7.468C176.4 7.7 176.316 7.888 176.148 8.032C175.988 8.176 175.776 8.248 175.512 8.248C175.248 8.248 175.036 8.176 174.876 8.032C174.716 7.888 174.636 7.7 174.636 7.468ZM176.196 9.388V16H174.828V9.388H176.196ZM182.004 9.304C182.58 9.304 183.092 9.44 183.54 9.712C183.996 9.984 184.352 10.376 184.608 10.888C184.864 11.4 184.992 12 184.992 12.688C184.992 13.384 184.864 13.988 184.608 14.5C184.352 15.012 183.996 15.404 183.54 15.676C183.092 15.948 182.58 16.084 182.004 16.084C181.404 16.084 180.892 15.936 180.468 15.64C180.044 15.344 179.748 14.952 179.58 14.464V19.144H178.212V9.388H179.58V10.924C179.748 10.436 180.044 10.044 180.468 9.748C180.892 9.452 181.404 9.304 182.004 9.304ZM181.584 10.504C181.2 10.504 180.856 10.596 180.552 10.78C180.248 10.956 180.008 11.212 179.832 11.548C179.656 11.876 179.568 12.256 179.568 12.688C179.568 13.128 179.656 13.512 179.832 13.84C180.008 14.168 180.248 14.424 180.552 14.608C180.856 14.784 181.2 14.872 181.584 14.872C182.192 14.872 182.68 14.68 183.048 14.296C183.416 13.904 183.6 13.368 183.6 12.688C183.6 12.016 183.416 11.484 183.048 11.092C182.68 10.7 182.192 10.504 181.584 10.504ZM189.994 14.812V16H189.154C188.45 16 187.914 15.832 187.546 15.496C187.186 15.152 187.006 14.584 187.006 13.792V10.552H186.058V9.388H187.006V7.744H188.386V9.388H189.982V10.552H188.386V13.816C188.386 14.192 188.454 14.452 188.59 14.596C188.734 14.74 188.982 14.812 189.334 14.812H189.994Z" fill="#6070FF"/>
</svg>
